<svg width="30" height="30" viewBox="0 0 24 24" fill="none" xmlns="http://www.w3.org/2000/svg">
<path fill-rule="evenodd" clip-rule="evenodd" d="M4 5.4C4 3.59835 5.40423 2 7.31339 2H12.3425C13.3927 2 14.4567 2.39181 15.2604 3.19084L15.2701 3.2005L18.8866 6.89605C19.6883 7.6965 20.0956 8.86897 19.9809 9.95712V18.6C19.9809 20.4017 18.5767 22 16.6675 22H7.31339C5.40423 22 4 20.4017 4 18.6V5.4ZM7.31339 4C6.60742 4 6 4.60165 6 5.4V18.6C6 19.3983 6.60742 20 7.31339 20H16.6675C17.3735 20 17.9809 19.3983 17.9809 18.6V9.9C17.9809 9.8583 17.9835 9.81663 17.9888 9.77525C18.0504 9.28456 17.8563 8.69202 17.4712 8.30916L17.4615 8.2995L13.8459 4.60483C13.443 4.20669 12.8996 4 12.3425 4H7.31339Z" fill="white"/>
<path fill-rule="evenodd" clip-rule="evenodd" d="M12 12C12.5523 12 13 12.4477 13 13V17C13 17.5523 12.5523 18 12 18C11.4477 18 11 17.5523 11 17V13C11 12.4477 11.4477 12 12 12Z" fill="white"/>
<path fill-rule="evenodd" clip-rule="evenodd" d="M9 15C9 14.4477 9.44772 14 10 14H14C14.5523 14 15 14.4477 15 15C15 15.5523 14.5523 16 14 16H10C9.44772 16 9 15.5523 9 15Z" fill="white"/>
</svg>
