<svg width="24" height="24" viewBox="0 0 24 24" fill="none" xmlns="http://www.w3.org/2000/svg">
<path fill-rule="evenodd" clip-rule="evenodd" d="M5.8 6.75C4.66782 6.75 3.75 7.66782 3.75 8.8V15.2C3.75 16.3322 4.66782 17.25 5.8 17.25H11.4706C11.6411 17.25 11.7794 17.1117 11.7794 16.9412C11.7794 15.9422 12.5892 15.1324 13.5882 15.1324H14.6471C15.646 15.1324 16.4559 15.9422 16.4559 16.9412C16.4559 17.1117 16.5941 17.25 16.7647 17.25H18.3529C19.4007 17.25 20.25 16.4007 20.25 15.3529V8.64706C20.25 7.59934 19.4007 6.75 18.3529 6.75H16.7647C16.5941 6.75 16.4559 6.88827 16.4559 7.05882C16.4559 8.05781 15.646 8.86765 14.6471 8.86765H13.5882C12.5893 8.86765 11.7794 8.05781 11.7794 7.05882C11.7794 6.88826 11.6411 6.75 11.4706 6.75H5.8ZM2.25 8.8C2.25 6.83939 3.83939 5.25 5.8 5.25H11.4706C12.4696 5.25 13.2794 6.05984 13.2794 7.05882C13.2794 7.22938 13.4177 7.36765 13.5882 7.36765H14.6471C14.8176 7.36765 14.9559 7.22938 14.9559 7.05882C14.9559 6.05984 15.7657 5.25 16.7647 5.25H18.3529C20.2291 5.25 21.75 6.77091 21.75 8.64706V15.3529C21.75 17.2291 20.2291 18.75 18.3529 18.75H16.7647C15.7657 18.75 14.9559 17.9402 14.9559 16.9412C14.9559 16.7706 14.8176 16.6324 14.6471 16.6324H13.5882C13.4177 16.6324 13.2794 16.7706 13.2794 16.9412C13.2794 17.9402 12.4696 18.75 11.4706 18.75H5.8C3.83939 18.75 2.25 17.1606 2.25 15.2V8.8Z" fill="#676d7c"/>
<path fill-rule="evenodd" clip-rule="evenodd" d="M14 9.25C14.4142 9.25 14.75 9.58579 14.75 10V11C14.75 11.4142 14.4142 11.75 14 11.75C13.5858 11.75 13.25 11.4142 13.25 11V10C13.25 9.58579 13.5858 9.25 14 9.25Z" fill="#676d7c"/>
<path fill-rule="evenodd" clip-rule="evenodd" d="M14 12.25C14.4142 12.25 14.75 12.5858 14.75 13V14C14.75 14.4142 14.4142 14.75 14 14.75C13.5858 14.75 13.25 14.4142 13.25 14V13C13.25 12.5858 13.5858 12.25 14 12.25Z" fill="#676d7c"/>
</svg>
