<svg width="36" height="36" viewBox="0 0 24 24" fill="none" xmlns="http://www.w3.org/2000/svg">
<path d="M7.29995 13.6C8.18361 13.6 8.89995 12.8837 8.89995 12C8.89995 11.1164 8.18361 10.4 7.29995 10.4C6.4163 10.4 5.69995 11.1164 5.69995 12C5.69995 12.8837 6.4163 13.6 7.29995 13.6Z" fill="black"/>
<path d="M12 13.6C12.8837 13.6 13.6 12.8837 13.6 12C13.6 11.1164 12.8837 10.4 12 10.4C11.1164 10.4 10.4 11.1164 10.4 12C10.4 12.8837 11.1164 13.6 12 13.6Z" fill="black"/>
<path d="M16.7 13.6C17.5836 13.6 18.3 12.8837 18.3 12C18.3 11.1164 17.5836 10.4 16.7 10.4C15.8163 10.4 15.1 11.1164 15.1 12C15.1 12.8837 15.8163 13.6 16.7 13.6Z" fill="black"/>
</svg>
