<svg width="24" height="24" viewBox="0 0 24 24" fill="none" xmlns="http://www.w3.org/2000/svg">
<path fill-rule="evenodd" clip-rule="evenodd" d="M3.25 7.87144C3.25 5.91083 4.83939 4.32144 6.8 4.32144H17.2C19.1606 4.32144 20.75 5.91083 20.75 7.87144V18.2714C20.75 20.2321 19.1606 21.8214 17.2 21.8214H6.8C4.83939 21.8214 3.25 20.2321 3.25 18.2714V7.87144ZM6.8 5.82144C5.66782 5.82144 4.75 6.73926 4.75 7.87144V18.2714C4.75 19.4036 5.66782 20.3214 6.8 20.3214H17.2C18.3322 20.3214 19.25 19.4036 19.25 18.2714V7.87144C19.25 6.73926 18.3322 5.82144 17.2 5.82144H6.8Z" fill="#676d7c"/>
<path fill-rule="evenodd" clip-rule="evenodd" d="M8.57141 3.17856C8.98562 3.17856 9.32141 3.51434 9.32141 3.92856V6.21427C9.32141 6.62849 8.98562 6.96427 8.57141 6.96427C8.1572 6.96427 7.82141 6.62849 7.82141 6.21427V3.92856C7.82141 3.51434 8.1572 3.17856 8.57141 3.17856Z" fill="#676d7c"/>
<path fill-rule="evenodd" clip-rule="evenodd" d="M15.4286 3.17856C15.8428 3.17856 16.1786 3.51434 16.1786 3.92856V6.21427C16.1786 6.62849 15.8428 6.96427 15.4286 6.96427C15.0144 6.96427 14.6786 6.62849 14.6786 6.21427V3.92856C14.6786 3.51434 15.0144 3.17856 15.4286 3.17856Z" fill="#676d7c"/>
<path fill-rule="evenodd" clip-rule="evenodd" d="M4.75 11.9286C4.75 14.9677 7.23594 17.4195 10.2747 17.3775L19.4896 17.2501C19.9038 17.2443 20.2442 17.5755 20.2499 17.9896C20.2557 18.4038 19.9245 18.7442 19.5104 18.7499L10.2955 18.8773C6.42022 18.9309 3.25 15.8042 3.25 11.9286H4.75Z" fill="#676d7c"/>
<path fill-rule="evenodd" clip-rule="evenodd" d="M9 13.25C9 12.8358 9.33579 12.5 9.75 12.5H14.25C14.6642 12.5 15 12.8358 15 13.25C15 13.6642 14.6642 14 14.25 14H9.75C9.33579 14 9 13.6642 9 13.25Z" fill="#676d7c"/>
<path fill-rule="evenodd" clip-rule="evenodd" d="M8 10.25C8 9.83579 8.33579 9.5 8.75 9.5H15.25C15.6642 9.5 16 9.83579 16 10.25C16 10.6642 15.6642 11 15.25 11H8.75C8.33579 11 8 10.6642 8 10.25Z" fill="#676d7c"/>
</svg>
