<svg xmlns="http://www.w3.org/2000/svg" width="24" height="24" fill="none">
    <path stroke="#363853" stroke-width="1.5"
        d="M3.297 5.234a2.6 2.6 0 0 1 1.937-1.937 5.54 5.54 0 0 1 2.532 0 2.6 2.6 0 0 1 1.937 1.937c.195.833.195 1.7 0 2.532a2.6 2.6 0 0 1-1.937 1.937c-.833.195-1.7.195-2.532 0a2.6 2.6 0 0 1-1.937-1.937 5.55 5.55 0 0 1 0-2.532Z" />
    <path stroke="#0095FF" stroke-width="1.5"
        d="M3.297 16.234a2.6 2.6 0 0 1 1.937-1.937 5.55 5.55 0 0 1 2.532 0 2.6 2.6 0 0 1 1.937 1.937c.195.833.195 1.7 0 2.532a2.6 2.6 0 0 1-1.937 1.937c-.833.195-1.7.195-2.532 0a2.6 2.6 0 0 1-1.937-1.937 5.55 5.55 0 0 1 0-2.532Z" />
    <path stroke="#363853" stroke-width="1.5"
        d="M14.297 5.234a2.6 2.6 0 0 1 1.937-1.937 5.54 5.54 0 0 1 2.532 0 2.6 2.6 0 0 1 1.937 1.937c.195.833.195 1.7 0 2.532a2.6 2.6 0 0 1-1.937 1.937c-.833.195-1.7.195-2.532 0a2.6 2.6 0 0 1-1.937-1.937 5.55 5.55 0 0 1 0-2.532ZM14.297 16.234a2.6 2.6 0 0 1 1.937-1.937 5.55 5.55 0 0 1 2.532 0 2.6 2.6 0 0 1 1.937 1.937c.195.833.195 1.7 0 2.532a2.6 2.6 0 0 1-1.937 1.937c-.833.195-1.7.195-2.532 0a2.6 2.6 0 0 1-1.937-1.937 5.55 5.55 0 0 1 0-2.532Z" />
</svg>