<svg width="24" height="24" viewBox="0 0 24 24" fill="none" xmlns="http://www.w3.org/2000/svg">
<path fill-rule="evenodd" clip-rule="evenodd" d="M10 5.75C8.75736 5.75 7.75 6.75736 7.75 8C7.75 9.24264 8.75736 10.25 10 10.25C11.2426 10.25 12.25 9.24264 12.25 8C12.25 6.75736 11.2426 5.75 10 5.75ZM6.25 8C6.25 5.92893 7.92893 4.25 10 4.25C12.0711 4.25 13.75 5.92893 13.75 8C13.75 10.0711 12.0711 11.75 10 11.75C7.92893 11.75 6.25 10.0711 6.25 8Z" fill="#676d7c"/>
<path fill-rule="evenodd" clip-rule="evenodd" d="M9.99408 14.7499C7.99397 14.7342 6.2311 15.3195 4.88807 15.8221C4.20212 16.0788 3.75 16.7616 3.75 17.5589V21C3.75 21.4142 3.41421 21.75 3 21.75C2.58579 21.75 2.25 21.4142 2.25 21V17.5589C2.25 16.2021 3.03085 14.9156 4.36229 14.4173C5.74062 13.9014 7.71804 13.2319 10.0059 13.25C12.0316 13.266 13.6412 13.8146 15.0438 14.2928C15.1915 14.3431 15.3368 14.3926 15.48 14.4407C16.8837 14.9115 17.75 16.2392 17.75 17.6702V21C17.75 21.4142 17.4142 21.75 17 21.75C16.5858 21.75 16.25 21.4142 16.25 21V17.6702C16.25 16.8336 15.7493 16.1131 15.0031 15.8628C14.8581 15.8142 14.7138 15.7652 14.5697 15.7163C13.1558 15.236 11.7661 14.7639 9.99408 14.7499Z" fill="#676d7c"/>
<path fill-rule="evenodd" clip-rule="evenodd" d="M14.25 5C14.25 4.58579 14.5858 4.25 15 4.25C17.0711 4.25 18.75 5.92893 18.75 8C18.75 10.0711 17.0711 11.75 15 11.75C14.5858 11.75 14.25 11.4142 14.25 11C14.25 10.5858 14.5858 10.25 15 10.25C16.2426 10.25 17.25 9.24264 17.25 8C17.25 6.75736 16.2426 5.75 15 5.75C14.5858 5.75 14.25 5.41421 14.25 5Z" fill="#676d7c"/>
<path fill-rule="evenodd" clip-rule="evenodd" d="M14.75 13.5C14.75 13.0858 15.0858 12.75 15.5 12.75C17.6156 12.75 19.4881 13.8628 20.5258 14.6181C21.3683 15.2313 21.75 16.2096 21.75 17.158V21C21.75 21.4142 21.4142 21.75 21 21.75C20.5858 21.75 20.25 21.4142 20.25 21V17.158C20.25 16.5918 20.0252 16.109 19.6431 15.8309C18.6805 15.1303 17.1305 14.25 15.5 14.25C15.0858 14.25 14.75 13.9142 14.75 13.5Z" fill="#676d7c"/>
</svg>
