<?xml version="1.0" encoding="UTF-8"?>
<svg id="Layer_1" data-name="Layer 1" xmlns="http://www.w3.org/2000/svg" viewBox="0 0 44.41 44.41">
  <defs>
    <style>
      .cls-1 {
        fill: #ef4444;
        stroke-width: 0px;
      }

      .cls-2 {
        fill: none;
        stroke: #fff;
        stroke-linecap: round;
        stroke-linejoin: round;
        stroke-width: 3px;
      }
    </style>
  </defs>
  <path class="cls-1" d="m24.48.11C10.47-1.29-1.29,10.47.11,24.48c1.04,10.38,9.44,18.77,19.81,19.81,14.02,1.41,25.77-10.35,24.37-24.37C43.25,9.55,34.86,1.16,24.48.11Zm8.34,16.98l-12.59,12.59c-.31.31-.73.49-1.18.49s-.87-.18-1.18-.49l-6.28-6.28c-.64-.64-.64-1.71,0-2.35.64-.64,1.71-.64,2.35,0l5.11,5.11,11.41-11.41c.64-.64,1.71-.64,2.35,0,.64.64.64,1.69,0,2.35Z"/>
  <path class="cls-1" d="m44.21,22.19c0,12.15-9.85,22-22,22S.21,34.34.21,22.19,10.05.19,22.21.19s22,9.85,22,22Z"/>
  <line class="cls-2" x1="11.9" y1="12.38" x2="32.9" y2="33.38"/>
  <line class="cls-2" x1="32.9" y1="12.38" x2="11.9" y2="33.38"/>
</svg>