<svg viewBox="0 0 54 54" fill="none" xmlns="http://www.w3.org/2000/svg">
    <path d="M26.8871 5.10309C14.652 5.10309 4.68188 15.0732 4.68188 27.3083C4.68188 39.5434 14.652 49.5136 26.8871 49.5136C39.1222 49.5136 49.0923 39.5434 49.0923 27.3083C49.0923 15.0732 39.1222 5.10309 26.8871 5.10309ZM37.5012 22.2011L24.9108 34.7915C24.6 35.1024 24.1781 35.28 23.734 35.28C23.2899 35.28 22.868 35.1024 22.5571 34.7915L16.273 28.5074C15.6291 27.8635 15.6291 26.7976 16.273 26.1536C16.917 25.5097 17.9828 25.5097 18.6268 26.1536L23.734 31.2609L35.1475 19.8474C35.7914 19.2034 36.8573 19.2034 37.5012 19.8474C38.1452 20.4913 38.1452 21.535 37.5012 22.2011Z" fill="#41D195" />
</svg>