<?xml version="1.0" encoding="UTF-8"?>
<svg id="Layer_1" data-name="Layer 1" xmlns="http://www.w3.org/2000/svg" viewBox="0 0 19.5 19.5">
  <defs>
    <style>
      .cls-1 {
        stroke-linecap: round;
      }

      .cls-1, .cls-2 {
        fill: none;
        stroke: #0095ff;
        stroke-width: 1.5px;
      }
    </style>
  </defs>
  <path class="cls-2" d="m18.19,4.64c-1.67.56-3.89-1.67-3.33-3.33m-.13.13l-3.59,3.59c-1.56,1.56-2.67,3.52-3.2,5.66l-.17.69c-.05.22.14.41.36.36l.69-.17c2.14-.54,4.1-1.64,5.66-3.2l3.59-3.59c.44-.44.69-1.04.69-1.67,0-1.3-1.06-2.36-2.36-2.36-.63,0-1.22.25-1.67.69Z"/>
  <path class="cls-1" d="m9.75.75c-1.02,0-2.05.12-3.05.35C3.92,1.75,1.75,3.92,1.1,6.7c-.47,2.01-.47,4.09,0,6.1.65,2.78,2.82,4.95,5.6,5.6,2.01.47,4.09.47,6.1,0,2.78-.65,4.95-2.82,5.6-5.6.24-1,.35-2.03.35-3.05"/>
</svg>