<svg xmlns="http://www.w3.org/2000/svg" width="36" height="36" viewBox="0 0 36 36" fill="none">
	<path d="M17.5 29.5312C18.7081 29.5312 19.6875 28.5519 19.6875 27.3438C19.6875 26.1356 18.7081 25.1562 17.5 25.1562C16.2919 25.1562 15.3125 26.1356 15.3125 27.3438C15.3125 28.5519 16.2919 29.5312 17.5 29.5312Z" fill="#eab308" />
	<path d="M32.8125 3.73406L31.2659 2.1875L2.1875 31.2659L3.73406 32.8125L15.4175 21.1291C16.5405 20.7461 17.747 20.6782 18.9059 20.9327C20.0648 21.1872 21.1318 21.7545 21.9909 22.5728L23.5375 21.0263C22.0206 19.5734 20.03 18.7173 17.932 18.6156L21.6377 14.91C23.5077 15.5303 25.2139 16.564 26.6295 17.9342L28.175 16.3877C26.7784 15.0306 25.1352 13.9528 23.3341 13.2125L26.612 9.93453C28.3195 10.8214 29.8872 11.9546 31.2648 13.2978L32.8125 11.7502V11.748C31.4417 10.4083 29.9009 9.25433 28.2297 8.31578L32.8125 3.73406ZM16.0563 14.3041L18.2897 12.0706C18.025 12.0564 17.7658 12.0312 17.5 12.0312C13.503 12.0305 9.66546 13.5987 6.81297 16.3986L8.35953 17.9441C10.4479 15.9071 13.1568 14.626 16.0563 14.3041ZM17.5 7.65625C19.0603 7.66221 20.6143 7.85499 22.1287 8.23047L23.9258 6.43453C20.1603 5.27542 16.1512 5.15724 12.324 6.09253C8.4967 7.02783 4.99401 8.98171 2.1875 11.7469V11.772L3.72313 13.3077C7.39313 9.6848 12.3431 7.65429 17.5 7.65625Z" fill="#eab308" />
</svg>