<?xml version="1.0" encoding="UTF-8"?>
<svg width="24" height="24" id="Layer_1" data-name="Layer 1" xmlns="http://www.w3.org/2000/svg" viewBox="0 0 18.5 19.5">
  <defs>
    <style>
      .cls-1 {
        fill: #0095ff;
        stroke-width: 0px;
      }
    </style>
  </defs>
  <path class="cls-1" d="m13.42,17.15l-.37-.65h0l.37.65Zm-3.09,1.49l-.16-.73.16.73Zm-5.25-1.49l-.37.65h0l.37-.65Zm3.09,1.49l.16-.73-.16.73Zm9.37-5.64l-.72-.21.72.21Zm-3.95,4.06l.37.65h0l-.37-.65Zm2.66-1.78l-.54-.52.54.52Zm-2.66-12.82l.37-.65h0l-.37.65Zm2.66,1.78l-.54.52.54-.52Zm1.3,2.27l-.72.21.72-.21ZM5.08,2.35l-.37-.65h0l.37.65Zm3.09-1.49l.16.73-.16-.73Zm5.25,1.49l-.37.65h0l.37-.65Zm-3.09-1.49l-.16.73.16-.73ZM.75,9.75H0h.75Zm.21-3.25l.72.21-.72-.21Zm3.95-4.06l.37.65-.37-.65Zm-2.66,1.78l-.54-.52.54.52ZM.96,13l-.72.21.72-.21Zm3.95,4.06l.37-.65h0l-.37.65Zm-2.66-1.78l-.54.52.54-.52ZM5.29,3.1l.17-.1-.75-1.3-.17.1.75,1.3Zm7.75-.1l.17.1.75-1.3-.17-.1-.75,1.3Zm.17,13.4l-.17.1.75,1.3.17-.1-.75-1.3Zm-7.75.1l-.17-.1-.75,1.3.17.1.75-1.3Zm7.59,0c-1.56.9-2.21,1.26-2.87,1.4l.31,1.47c.95-.2,1.83-.72,3.3-1.57l-.75-1.3Zm-8.33,1.3c1.48.85,2.36,1.37,3.3,1.57l.31-1.47c-.66-.14-1.3-.5-2.87-1.4l-.75,1.3Zm5.47.1c-.61.13-1.24.13-1.85,0l-.31,1.47c.82.17,1.66.17,2.48,0l-.31-1.47Zm6.83-8.15c0,1.71,0,2.42-.19,3.04l1.44.41c.25-.88.24-1.83.24-3.45h-1.5Zm-3.04,7.95c1.38-.79,2.2-1.26,2.83-1.92l-1.09-1.03c-.44.46-1.03.81-2.49,1.65l.75,1.3Zm2.86-4.91c-.21.74-.6,1.41-1.12,1.96l1.09,1.03c.69-.73,1.2-1.61,1.47-2.58l-1.44-.41Zm-3.61-9.7c1.46.84,2.05,1.19,2.49,1.65l1.09-1.03c-.63-.66-1.45-1.12-2.83-1.92l-.75,1.3Zm5.29,6.65c0-1.62,0-2.58-.24-3.45l-1.44.41c.18.63.19,1.33.19,3.04h1.5Zm-2.8-5c.52.55.91,1.22,1.12,1.96l1.44-.41c-.28-.97-.78-1.86-1.47-2.58l-1.09,1.03Zm-10.24-1.75c1.56-.9,2.21-1.26,2.87-1.4l-.31-1.47c-.95.2-1.83.72-3.3,1.57l.75,1.3Zm8.33-1.3c-1.48-.85-2.36-1.37-3.3-1.57l-.31,1.47c.66.14,1.3.5,2.87,1.4l.75-1.3Zm-5.47-.1c.61-.13,1.24-.13,1.85,0l.31-1.47c-.82-.17-1.66-.17-2.48,0l.31,1.47ZM1.5,9.75c0-1.71,0-2.42.19-3.04l-1.44-.41C0,7.17,0,8.13,0,9.75h1.5ZM4.54,1.8c-1.38.79-2.2,1.26-2.83,1.92l1.09,1.03c.44-.46,1.03-.81,2.49-1.65l-.75-1.3ZM1.69,6.71c.21-.74.6-1.41,1.12-1.96l-1.09-1.03c-.69.73-1.2,1.61-1.47,2.58l1.44.41ZM0,9.75C0,11.37,0,12.33.24,13.2l1.44-.41c-.18-.62-.19-1.33-.19-3.04H0Zm5.29,6.65c-1.46-.84-2.05-1.19-2.49-1.65l-1.09,1.03c.63.66,1.45,1.12,2.83,1.92l.75-1.3ZM.24,13.2c.28.97.78,1.86,1.47,2.58l1.09-1.03c-.52-.55-.91-1.22-1.12-1.96l-1.44.41Zm9.01-1.48c-1.04,0-1.91-.87-1.91-1.97h-1.5c0,1.9,1.51,3.47,3.41,3.47v-1.5Zm1.91-1.97c0,1.11-.87,1.97-1.91,1.97v1.5c1.9,0,3.41-1.57,3.41-3.47h-1.5Zm-1.91-1.97c1.04,0,1.91.87,1.91,1.97h1.5c0-1.9-1.51-3.47-3.41-3.47v1.5Zm0-1.5c-1.9,0-3.41,1.57-3.41,3.47h1.5c0-1.11.87-1.97,1.91-1.97v-1.5Z"/>
</svg>